<svg width="60" height="60" viewBox="0 0 60 60" fill="none" xmlns="http://www.w3.org/2000/svg">
<mask id="mask0_1_194" style="mask-type:alpha" maskUnits="userSpaceOnUse" x="0" y="0" width="60" height="60">
<rect width="60" height="60" fill="#D9D9D9"/>
</mask>
<g mask="url(#mask0_1_194)">
<path d="M16.3962 10C17.9307 10 19.2181 11.2376 19.2181 12.822C19.2181 14.4063 17.9805 15.6439 16.3962 15.6439C14.8616 15.6439 13.624 14.4063 13.624 12.822C13.624 11.2376 14.8616 10 16.3962 10Z" fill="#FD6585"/>
<path d="M21.8417 24.7523C21.8417 25.2968 21.6932 25.6929 21.2971 26.089C20.5546 26.782 18.624 27.2275 16.396 27.2275C14.1683 27.2275 12.2376 26.782 11.5446 26.089C11.1485 25.6929 11 25.2474 11 24.7028C11 19.9008 14.1683 16.9304 16.396 16.9304C18.6734 16.9304 21.8417 19.9008 21.8417 24.7522L21.8417 24.7523Z" fill="#FD6585"/>
<path d="M44.5154 10C46.05 10 47.3374 11.2376 47.3374 12.822C47.3374 14.4063 46.0998 15.6439 44.5154 15.6439C42.9809 15.6439 41.7432 14.4063 41.7432 12.822C41.7432 11.2376 42.9809 10 44.5154 10Z" fill="#FD6585"/>
<path d="M49.9601 24.7523C49.9601 25.2968 49.8116 25.6929 49.4156 26.089C48.6731 26.782 46.7425 27.2275 44.5145 27.2275C42.2868 27.2275 40.3561 26.782 39.663 26.089C39.267 25.6929 39.1185 25.2474 39.1185 24.7028C39.1185 19.9008 42.2871 16.9304 44.5148 16.9304C46.7918 16.9304 49.9602 19.9008 49.9602 24.7522L49.9601 24.7523Z" fill="#FD6585"/>
<path d="M26.2966 18.7129H35.2075C36.3957 18.7129 36.3957 16.8316 35.2075 16.8316H26.2966C25.1086 16.8316 25.059 18.7129 26.2966 18.7129Z" fill="#FD6585"/>
<path d="M30.4557 32.772C31.9903 32.772 33.2777 34.0097 33.2777 35.594C33.2777 37.1286 32.04 38.416 30.4557 38.416C28.9211 38.416 27.6835 37.1783 27.6835 35.594C27.6341 34.0097 28.9211 32.772 30.4557 32.772Z" fill="#FD6585"/>
<path d="M35.852 47.5247C35.852 48.0693 35.7035 48.4654 35.3075 48.8615C34.565 49.5545 32.6344 50 30.4064 50C28.1787 50 26.248 49.5545 25.5549 48.8615C25.1589 48.4654 25.0104 48.0199 25.0104 47.4753C25.0104 42.6733 28.1787 39.7032 30.4558 39.7032C32.6838 39.7032 35.8521 42.6733 35.8521 47.5247H35.852Z" fill="#FD6585"/>
<path d="M43.2279 30.3959C44.0694 29.5544 45.4062 30.8414 44.5646 31.7326L38.2774 38.0199C37.4358 38.8614 36.0991 37.5744 36.9407 36.6831C39.0201 34.5542 41.1488 32.475 43.2279 30.3959Z" fill="#FD6585"/>
<path d="M23.3762 36.6829C24.2178 37.5245 22.881 38.8612 22.0395 38.0196L15.7523 31.7324C14.9107 30.8909 16.1977 29.5541 17.0393 30.3957C19.1682 32.4749 21.2971 34.554 23.3763 36.6829H23.3762Z" fill="#FD6585"/>
</g>
</svg>
