<svg width="60" height="60" viewBox="0 0 60 60" fill="none" xmlns="http://www.w3.org/2000/svg">
<mask id="mask0_1_231" style="mask-type:alpha" maskUnits="userSpaceOnUse" x="0" y="0" width="60" height="60">
<rect width="60" height="60" fill="#D9D9D9"/>
</mask>
<g mask="url(#mask0_1_231)">
<path d="M47.1867 29.7469C46.6618 29.2015 46.0709 28.9844 45.4705 28.9844C44.3288 28.9844 43.1516 29.7676 42.3221 30.5661C42.3081 30.5795 38.319 33.8878 36.9633 35.2252C36.7172 35.4676 36.2382 35.6641 35.8928 35.6641C34.5683 37.1487 32.6422 38.0859 30.5008 38.0859C28.3594 38.0859 26.433 37.1487 25.1088 35.6641H24.9914C24.6462 35.6641 24.1552 35.4808 23.8946 35.2542L18.5634 30.6209C17.7495 29.838 16.5977 29.0126 15.4809 29.0123C14.9845 29.0123 14.4951 29.1755 14.045 29.5779C12.47 30.9849 13.4669 32.8173 14.7161 34.0137C14.742 34.0377 20.7043 39.7494 20.7043 39.7494C20.7043 39.7494 23.0491 42.236 23.216 43.7433L23.2157 47.3437C23.2157 48.8107 24.4048 49.9999 25.872 49.9999H35.4619C36.929 49.9999 38.1182 48.8108 38.1182 47.3437V43.743C38.2842 42.2357 40.4845 39.7492 40.4845 39.7492L46.3243 33.9546C47.3907 32.8578 48.4599 31.0721 47.1867 29.747L47.1867 29.7469Z" fill="#FD6585"/>
<path d="M36.477 30.8599C36.477 34.1606 33.8013 36.8367 30.5002 36.8367C27.1995 36.8367 24.5237 34.1606 24.5237 30.8599C24.5237 27.5591 27.1995 24.8834 30.5002 24.8834C33.8013 24.8834 36.477 27.5591 36.477 30.8599Z" fill="#FD6585"/>
<path d="M19.25 23.4369C19.25 25.1629 17.851 26.5619 16.125 26.5619C14.399 26.5619 13 25.1629 13 23.4369C13 21.7109 14.399 20.312 16.125 20.312C17.851 20.312 19.25 21.7109 19.25 23.4369Z" fill="#FD6585"/>
<path d="M33.625 13.125C33.625 14.851 32.226 16.25 30.5 16.25C28.774 16.25 27.375 14.851 27.375 13.125C27.375 11.399 28.774 10 30.5 10C32.226 10 33.625 11.399 33.625 13.125Z" fill="#FD6585"/>
<path d="M21.7478 13.4375C21.1811 13.4375 20.6072 13.5915 20.0915 13.9149C18.6292 14.8306 18.1855 16.7575 19.1024 18.2212C19.6956 19.1685 20.7123 19.6874 21.7522 19.6874C22.3189 19.6874 22.8926 19.5334 23.4085 19.21C24.8708 18.2943 25.3145 16.3674 24.3976 14.9037C23.8044 13.9564 22.7877 13.4375 21.7478 13.4375Z" fill="#FD6585"/>
<path d="M37.5905 18.897C38.1067 19.2207 38.6803 19.3747 39.2473 19.3747C40.2869 19.3747 41.3033 18.856 41.8968 17.909C42.8142 16.4456 42.3709 14.5187 40.9091 13.6027C40.3929 13.2793 39.819 13.125 39.252 13.125C38.2124 13.125 37.196 13.6437 36.6025 14.5907C35.6854 16.0541 36.1284 17.9807 37.5905 18.897Z" fill="#FD6585"/>
<path d="M47.9997 23.4369C47.9997 25.1629 46.6007 26.5619 44.8747 26.5619C43.1487 26.5619 41.7497 25.1629 41.7497 23.4369C41.7497 21.7109 43.1487 20.312 44.8747 20.312C46.6007 20.312 47.9997 21.7109 47.9997 23.4369Z" fill="#FD6585"/>
</g>
</svg>
