<svg width="60" height="60" viewBox="0 0 60 60" fill="none" xmlns="http://www.w3.org/2000/svg">
<mask id="mask0_1_212" style="mask-type:alpha" maskUnits="userSpaceOnUse" x="0" y="0" width="60" height="60">
<rect width="60" height="60" fill="#D9D9D9"/>
</mask>
<g mask="url(#mask0_1_212)">
<path d="M22 10C24.841 10.0254 27.4553 11.5558 28.8688 14.0206C30.2822 16.4853 30.2822 19.5147 28.8688 21.9795C27.4554 24.4442 24.8411 25.9746 22 26.0001C19.159 25.9747 16.5447 24.4443 15.1312 21.9795C13.7178 19.5149 13.7178 16.4854 15.1312 14.0206C16.5441 11.5559 19.1589 10.0255 22 10ZM26 39C25.9924 34.8719 27.9634 30.9902 31.3 28.5598C30.5897 28.1901 29.8009 27.9977 29 28H15C13.6741 28.0004 12.4026 28.5272 11.4651 29.4651C10.5272 30.4026 10.0005 31.674 10 33V45C10.0004 46.3259 10.5272 47.5973 11.4651 48.5348C12.4026 49.4728 13.6741 49.9995 15 50H29C29.8009 50.0022 30.5897 49.8098 31.3 49.4401C27.963 47.0097 25.9925 43.1281 26 38.9999V39ZM39 26C41.1281 25.9768 43.0843 24.8281 44.1415 22.9813C45.1991 21.1344 45.1986 18.8656 44.1415 17.0187C43.0843 15.1719 41.1277 14.0232 39 14C36.8719 14.0232 34.9157 15.1719 33.8581 17.0187C32.8009 18.8656 32.8009 21.1344 33.8585 22.9813C34.9156 24.8281 36.8719 25.9768 39 26H39ZM39.0004 50C24.4736 49.5379 24.4679 28.4651 39 28C53.5326 28.4674 53.5349 49.5303 39.0004 50ZM44 38H40V34C40 33.4478 39.5522 33 39 33C38.4478 33 38 33.4478 38 34V38H34C33.4478 38 33 38.4478 33 39C33 39.5522 33.4478 40 34 40H38V44C38 44.5522 38.4478 45 39 45C39.5522 45 40 44.5522 40 44V40H44C44.5424 39.9862 44.975 39.5424 44.975 39C44.975 38.4576 44.5424 38.0138 44 38Z" fill="#FD6585"/>
</g>
</svg>
