<svg width="20" height="20" viewBox="0 0 20 20" fill="none" xmlns="http://www.w3.org/2000/svg">
<g id="pin_drop">
<mask id="mask0_1_110" style="mask-type:alpha" maskUnits="userSpaceOnUse" x="0" y="0" width="20" height="20">
<rect id="Bounding box" width="20" height="20" fill="#D9D9D9"/>
</mask>
<g mask="url(#mask0_1_110)">
<path id="pin_drop_2" d="M10 13.7292C11.375 12.6181 12.4133 11.5486 13.115 10.5209C13.8161 9.49308 14.1667 8.5278 14.1667 7.62502C14.1667 6.84724 14.0245 6.18391 13.74 5.63502C13.455 5.08669 13.1042 4.64224 12.6875 4.30169C12.2708 3.96169 11.8195 3.7153 11.3333 3.56252C10.8472 3.40974 10.4028 3.33335 10 3.33335C9.59723 3.33335 9.15278 3.40974 8.66667 3.56252C8.18056 3.7153 7.72917 3.96169 7.31251 4.30169C6.89584 4.64224 6.54528 5.08669 6.26084 5.63502C5.97584 6.18391 5.83334 6.84724 5.83334 7.62502C5.83334 8.5278 6.18389 9.49308 6.88501 10.5209C7.58667 11.5486 8.62501 12.6181 10 13.7292ZM10 15.8334C8.04167 14.3889 6.57973 12.9861 5.61417 11.625C4.64917 10.2639 4.16667 8.93058 4.16667 7.62502C4.16667 6.63891 4.34389 5.77419 4.69834 5.03085C5.05223 4.28808 5.50695 3.66669 6.06251 3.16669C6.61806 2.66669 7.24306 2.29169 7.93751 2.04169C8.63195 1.79169 9.31945 1.66669 10 1.66669C10.6806 1.66669 11.3681 1.79169 12.0625 2.04169C12.757 2.29169 13.382 2.66669 13.9375 3.16669C14.4931 3.66669 14.9481 4.28808 15.3025 5.03085C15.6564 5.77419 15.8333 6.63891 15.8333 7.62502C15.8333 8.93058 15.3506 10.2639 14.385 11.625C13.42 12.9861 11.9583 14.3889 10 15.8334ZM10 9.16669C10.4583 9.16669 10.8508 9.00335 11.1775 8.67669C11.5036 8.35058 11.6667 7.95835 11.6667 7.50002C11.6667 7.04169 11.5036 6.64919 11.1775 6.32252C10.8508 5.99641 10.4583 5.83335 10 5.83335C9.54167 5.83335 9.14945 5.99641 8.82334 6.32252C8.49667 6.64919 8.33334 7.04169 8.33334 7.50002C8.33334 7.95835 8.49667 8.35058 8.82334 8.67669C9.14945 9.00335 9.54167 9.16669 10 9.16669ZM4.16667 18.3334V16.6667H15.8333V18.3334H4.16667Z" fill="#676767"/>
</g>
</g>
</svg>
