<svg width="96" height="45" viewBox="0 0 96 45" fill="none" xmlns="http://www.w3.org/2000/svg">
<g opacity="0.9">
<path fill-rule="evenodd" clip-rule="evenodd" d="M39.5351 0.0230217C35.6079 0.296932 32.284 3.59481 32.284 8.24034V30.3504C32.284 31.1502 31.6917 31.8405 30.825 31.8405H23.914C8.95118 31.8624 10.2785 12.7544 23.0145 12.7325H30.6715L30.6715 7.17756H22.7512C17.6722 7.17756 13.9095 9.07302 11.3755 11.8888C8.83051 14.7156 7.55801 18.5065 7.55801 22.2974C7.54704 26.0883 8.80857 29.8574 11.4084 32.6841C14.0083 35.4999 17.9355 37.3954 23.3217 37.3954H36.3648C37.2205 37.3954 37.9335 36.6503 37.9335 35.7957V8.83198C37.9225 7.44052 38.7124 6.36679 39.7326 6.04905C40.7528 5.73132 41.9485 6.1367 42.6505 7.1447L42.6834 7.17756C46.3912 13.2365 61.1128 36.8256 61.1347 36.8695C61.5406 37.4392 62.0233 37.5488 62.3743 37.4282C62.7253 37.3077 63.0764 36.9352 63.0764 35.9929V8.83198C63.0654 7.44052 63.8552 6.36679 64.8754 6.04905C65.8956 5.73132 67.0694 6.1367 67.7715 7.1447V7.17756H67.8263C71.5341 13.2365 86.2556 36.8256 86.2776 36.8695C86.6725 37.4392 87.1442 37.5488 87.5172 37.4282C87.8901 37.3077 88.2522 36.9571 88.2522 36.0258V0.165455H82.6575V21.0922C82.6575 21.0922 79.3227 15.4058 73.6184 5.59984C68.0238 -3.99798 57.4598 -0.0208054 57.4598 8.24034V21.0922C57.4598 21.0922 54.1798 15.4058 48.4646 5.59984C46.0073 1.40353 42.5957 -0.207062 39.5351 0.0230217ZM23.7274 0.165375C-7.38306 0.165375 -7.08688 44.4512 24.1443 44.4731H36.3647C41.6192 44.4731 44.965 41.3725 44.965 35.6313V24.401C44.965 24.401 51.8212 35.7299 54.5197 40.1673C59.0942 47.7162 70.1408 46.2262 70.1079 36.8036V24.401C70.1079 24.401 76.9421 35.7299 79.6297 40.1673C84.2041 47.7162 95.2837 46.2262 95.2508 36.8036V0.154415L89.6562 0.154415V36.0148C89.6671 37.3953 88.9431 38.4142 87.9449 38.732C86.9466 39.0607 85.8057 38.6443 85.1037 37.6692H85.0817V37.6144C85.0817 37.6144 70.3492 14.091 66.5975 7.95539C66.5866 7.94443 66.5756 7.96634 66.5646 7.95539C66.5537 7.95539 66.5756 7.92252 66.5646 7.92252C66.1807 7.40757 65.6761 7.298 65.2702 7.41852C64.8533 7.55 64.4475 7.91156 64.4584 8.82094V35.9819C64.4694 37.3515 63.7564 38.4252 62.7691 38.7648C61.7818 39.0935 60.6519 38.6553 59.9608 37.6692V37.6363H59.9279C59.9279 37.6363 45.1844 14.0691 41.4437 7.94443C41.0488 7.38565 40.5442 7.25418 40.1273 7.38565C39.7105 7.51713 39.3046 7.87869 39.3155 8.78807V8.82094V35.7847C39.3155 37.4172 37.9663 38.7867 36.3318 38.7867H23.2996C17.5733 38.7867 13.2402 36.7269 10.3771 33.6263C7.51398 30.5256 6.09887 26.406 6.09887 22.2864C6.10984 18.1777 7.51398 14.0252 10.3113 10.9246C13.1086 7.82391 17.2991 5.7641 22.7292 5.7641H30.6494V0.154415L23.7274 0.165375Z" fill="#CC0000"/>
</g>
</svg>
