<svg width="118" height="48" viewBox="0 0 118 48" fill="none" xmlns="http://www.w3.org/2000/svg">
<g opacity="0.9">
<path fill-rule="evenodd" clip-rule="evenodd" d="M30.0074 32.9651V0H35.957V14.8435C35.957 14.8435 38.497 10.4112 46.6434 10.4112C55.3618 10.4112 60.5104 16.6211 60.5104 24.3314C60.5104 25.2534 60.441 26.1447 60.3063 27.0004C61.7259 23.0335 66.5853 21.0764 74.5833 21.0764H81.8372V19.7837C81.8372 16.1594 78.6793 14.2664 74.5833 14.2664C68.2904 14.2664 67.9701 18.2832 67.9701 18.2832H61.7917C61.7917 17.1751 62.5926 10.3189 75.018 10.3189C79.2648 10.3189 83.9249 11.2224 86.2738 14.7687L84.4917 11.4037H91.4481L101.448 31.603L111.425 11.4037H117.741L99.5945 47.3468H92.9813L98.2215 37.328L87.0253 16.1876C87.5308 17.4095 87.8143 18.8711 87.8096 20.6147V33.5884C87.8096 35.0889 88.0156 37.4436 88.0156 37.4436H82.5237C82.5237 37.4436 82.3864 35.5506 82.3864 33.6346C82.3864 33.6346 79.5946 38.4593 70.922 38.4593C64.5834 38.4593 59.8695 35.3659 59.8695 29.6871C59.8695 29.3857 59.8834 29.0924 59.911 28.807C58.2591 34.6307 53.3176 38.4131 46.6434 38.4131C38.7945 38.4131 35.9112 33.8654 35.9112 33.8654C35.9112 35.5737 35.7053 37.4666 35.7053 37.4666H29.8701C29.8701 37.4666 30.0074 34.835 30.0074 32.9651ZM0.556885 24.5162C0.556885 13.851 7.44466 10.319 15.7054 10.319C26.9181 10.319 30.0073 17.8908 30.0073 22.7848V25.9012H6.59799C6.59799 30.8876 10.3508 34.4195 15.5452 34.4195C21.9296 34.4195 23.2339 29.8949 23.2339 29.8949H29.3437C29.3437 29.8949 28.5428 38.2978 15.9114 38.2978C5.17924 38.2978 0.556885 32.9652 0.556885 24.5162ZM23.829 21.9539C23.829 17.36 20.4423 14.3128 15.4996 14.3128C11.1518 14.3128 6.73544 17.083 6.75832 21.9539H23.829ZM45.1559 14.4742C50.7623 14.4742 54.332 18.6756 54.332 24.3083C54.332 30.3565 50.2131 34.304 45.2017 34.304C39.2064 34.304 35.9799 29.5947 35.9799 24.3545C35.9799 19.5067 38.8631 14.4742 45.1559 14.4742ZM81.86 24.9547V26.6861C81.86 28.9253 80.4871 34.5118 72.4094 34.5118C67.9701 34.5118 66.0708 32.2726 66.0708 29.6871C66.0708 25.0009 72.4551 24.9547 81.86 24.9547Z" fill="#4E4E4E"/>
</g>
</svg>
