<svg width="131" height="42" viewBox="0 0 131 42" fill="none" xmlns="http://www.w3.org/2000/svg">
<g opacity="0.9">
<path fill-rule="evenodd" clip-rule="evenodd" d="M17.2751 32.1395C22.1779 32.1395 25.8723 30.575 28.7644 27.6354C31.7416 24.7285 32.6659 20.6588 32.6659 17.3664C32.6659 16.3441 32.5855 15.4067 32.4247 14.6195H17.2751V19.0093H28.0444C27.7229 21.4786 26.8757 23.2815 25.595 24.5357C24.0251 26.0611 21.5764 27.7497 17.2751 27.7497C10.6454 27.7497 5.4603 22.5368 5.4603 16.0697C5.4603 9.60265 10.6454 4.38652 17.2751 4.38652C20.849 4.38652 23.4655 5.76159 25.3911 7.52534L28.5668 4.42898C25.8723 1.9238 22.2984 0 17.2751 0C8.1913 0 0.556885 7.20852 0.556885 16.0697C0.556885 24.9277 8.1913 32.1395 17.2751 32.1395ZM44.9261 32.1396C50.7899 32.1396 55.5721 27.7498 55.5721 21.789C55.5721 15.7955 50.7899 11.4449 44.9261 11.4449C39.0521 11.4449 34.27 15.7955 34.27 21.789C34.27 27.7498 39.0521 32.1396 44.9261 32.1396ZM44.926 28.0632C41.7077 28.0632 38.9315 25.4764 38.9315 21.7888C38.9315 18.0686 41.7077 15.5242 44.926 15.5242C48.1376 15.5242 50.9104 18.0686 50.9104 21.7888C50.9104 25.4764 48.1376 28.0632 44.926 28.0632ZM68.1506 32.1396C74.0178 32.1396 78.8 27.7498 78.8 21.789C78.8 15.7955 74.0178 11.4449 68.1506 11.4449C62.28 11.4449 57.4978 15.7955 57.4978 21.789C57.4978 27.7498 62.28 32.1396 68.1506 32.1396ZM68.1505 28.0632C64.9356 28.0632 62.1594 25.4764 62.1594 21.7888C62.1594 18.0686 64.9356 15.5242 68.1505 15.5242C71.3654 15.5242 74.1383 18.0686 74.1383 21.7888C74.1383 25.4764 71.3654 28.0632 68.1505 28.0632ZM90.9765 41.4287C96.4385 41.4287 101.067 38.2964 101.067 30.6502V12.0721H96.6428V13.7574H96.4821C95.4339 12.5424 93.4245 11.4449 90.8995 11.4449C85.5915 11.4449 80.7323 15.9915 80.7323 21.8315C80.7323 27.6355 85.5915 32.1396 90.8995 32.1396C93.4245 32.1396 95.4339 31.0422 96.4821 29.788H96.6428V31.2773C96.6428 35.2393 94.4727 37.3525 90.9765 37.3525C88.1266 37.3525 86.3551 35.3568 85.6284 33.6649L81.5729 35.3144C82.7416 38.0613 85.8326 41.4287 90.9765 41.4287ZM91.2947 28.0632C88.0831 28.0632 85.3872 25.4404 85.3872 21.8313C85.3872 18.1862 88.0831 15.5242 91.2947 15.5242C94.4727 15.5242 96.9643 18.1862 96.9643 21.8313C96.9643 25.4404 94.4727 28.0632 91.2947 28.0632ZM108.94 1.09762H104.278V31.5125H108.94V1.09762ZM121.719 32.1396C126.578 32.1396 129.395 29.2425 130.56 27.5539L126.94 25.2055C125.738 26.9235 124.09 28.0634 121.719 28.0634C119.348 28.0634 117.657 27.0051 116.575 24.9278L130.761 19.2022L130.279 18.0296C129.395 15.7171 126.699 11.4449 121.197 11.4449C115.731 11.4449 111.19 15.642 111.19 21.789C111.19 27.5931 115.691 32.1396 121.719 32.1396ZM115.812 21.4787C115.691 17.4841 118.986 15.4427 121.357 15.4427C123.206 15.4427 124.773 16.3442 125.299 17.6376L115.812 21.4787Z" fill="#4E4E4E"/>
</g>
</svg>
