<svg width="113" height="58" viewBox="0 0 113 58" fill="none" xmlns="http://www.w3.org/2000/svg">
<g opacity="0.9">
<path fill-rule="evenodd" clip-rule="evenodd" d="M110.377 55.1463H110.936L111.706 57.2164H111.721L112.462 55.1463H113.006V57.66H112.643V55.6047H112.628L111.857 57.66H111.51L110.754 55.6047H110.739V57.66H110.377V55.1463ZM110.195 55.1463V55.442H109.319V57.66H108.957V55.442H108.08V55.1463H110.195ZM113.006 17.9877C113.006 16.6717 111.918 15.6071 110.573 15.6071C109.229 15.6071 108.126 16.6717 108.126 17.9877V23.0151C108.126 24.3311 109.229 25.4105 110.573 25.4105C111.918 25.4105 113.006 24.3311 113.006 23.0151V17.9877ZM99.5888 11.4079C99.5888 10.0845 98.501 9.01395 97.1109 9.01395C95.7662 9.01395 94.6783 10.0845 94.6783 11.4079V23.0153C94.6783 24.3313 95.7662 25.4107 97.1109 25.4107C98.501 25.4107 99.5888 24.3313 99.5888 23.0153V11.4079ZM86.1264 2.38802C86.1264 1.07054 85.0385 0 83.6938 0C82.3491 0 81.2461 1.07054 81.2461 2.38802V27.7764C81.2461 29.1072 82.3491 30.1718 83.6938 30.1718C85.0385 30.1718 86.1264 29.1072 86.1264 27.7764V2.38802ZM72.6794 11.4079C72.6794 10.0845 71.5916 9.01395 70.2318 9.01395C68.887 9.01395 67.7992 10.0845 67.7992 11.4079V23.0153C67.7992 24.3313 68.887 25.4107 70.2318 25.4107C71.5916 25.4107 72.6794 24.3313 72.6794 23.0153V11.4079ZM59.232 17.9877C59.232 16.6717 58.129 15.6071 56.7843 15.6071C55.4396 15.6071 54.3366 16.6717 54.3366 17.9877V23.0151C54.3366 24.3311 55.4396 25.4105 56.7843 25.4105C58.129 25.4105 59.232 24.3311 59.232 23.0151V17.9877ZM45.8002 11.4079C45.8002 10.0845 44.6972 9.01395 43.3525 9.01395C41.9926 9.01395 40.8897 10.0845 40.8897 11.4079V23.0153C40.8897 24.3313 41.9926 25.4107 43.3525 25.4107C44.6972 25.4107 45.8002 24.3313 45.8002 23.0153V11.4079ZM32.3528 2.38802C32.3528 1.07054 31.2499 0 29.9052 0C28.5453 0 27.4575 1.07054 27.4575 2.38802V27.7764C27.4575 29.1072 28.5453 30.1718 29.9052 30.1718C31.2499 30.1718 32.3528 29.1072 32.3528 27.7764V2.38802ZM18.9056 11.4079C18.9056 10.0845 17.8026 9.01395 16.4579 9.01395C15.0981 9.01395 14.0102 10.0845 14.0102 11.4079V23.0153C14.0102 24.3313 15.0981 25.4107 16.4579 25.4107C17.8026 25.4107 18.9056 24.3313 18.9056 23.0153V11.4079ZM5.45231 17.9877C5.45231 16.6717 4.35387 15.6071 3.00612 15.6071C1.65687 15.6071 0.556915 16.6717 0.556915 17.9877V23.0151C0.556915 24.3311 1.65687 25.4105 3.00612 25.4105C4.35387 25.4105 5.45231 24.3311 5.45231 23.0151V17.9877ZM55.9987 42.8882C55.9231 42.8735 53.838 42.3116 52.1307 42.3116C50.1665 42.3116 49.0937 42.9474 49.0937 43.8789C49.0937 45.0323 50.5442 45.4463 51.345 45.6977L52.7048 46.1117C55.908 47.1172 57.3736 49.2612 57.3736 51.5827C57.3736 56.3883 53.0524 58 49.275 58C46.6611 58 44.1983 57.5417 43.9566 57.4825V53.0761C44.3948 53.1944 46.4647 53.8007 48.6102 53.8007C51.0579 53.8007 52.1911 53.0909 52.1911 52.0115C52.1911 51.0356 51.2241 50.4737 50.0003 50.104C49.6981 50.0005 49.2448 49.8675 48.9426 49.764C46.1928 48.9211 43.9113 47.339 43.9113 44.1747C43.9113 40.5963 46.646 38.2009 51.1939 38.2009C53.5812 38.2009 55.8476 38.7628 55.9987 38.8072V42.8882ZM92.5632 43.0804C89.632 43.0804 87.4714 45.3279 87.4714 48.1078C87.4714 50.8877 89.632 53.1352 92.5632 53.1352C95.4944 53.1352 97.6701 50.8877 97.6701 48.1078C97.6701 45.3279 95.4944 43.0804 92.5632 43.0804ZM102.883 48.1079C102.883 53.5789 98.5765 58 92.563 58C86.5495 58 82.2434 53.5789 82.2434 48.1079C82.2434 42.6369 86.5495 38.2009 92.563 38.2009C98.5765 38.2009 102.883 42.6369 102.883 48.1079ZM25.584 44.0268C25.3875 43.9233 23.8011 43.0065 21.444 43.0065C18.2409 43.0065 16.0349 45.1801 16.0349 48.1079C16.0349 50.9469 18.1502 53.2092 21.444 53.2092C23.7557 53.2092 25.3724 52.3072 25.584 52.1889V57.3199C24.9645 57.4973 23.2874 58 21.0814 58C15.5363 58 10.6817 54.2591 10.6817 48.1079C10.6817 42.3855 15.083 38.2009 21.0814 38.2009C23.4082 38.2009 25.1156 38.748 25.584 38.8959V44.0268ZM77.0458 44.0268C76.8494 43.9233 75.2629 43.0065 72.9059 43.0065C69.7178 43.0065 67.5119 45.1801 67.5119 48.1079C67.5119 50.9469 69.6272 53.2092 72.9059 53.2092C75.2176 53.2092 76.8343 52.3072 77.0458 52.1889V57.3199C76.4414 57.4973 74.7492 58 72.5584 58C67.0133 58 62.1481 54.2591 62.1481 48.1079C62.1481 42.3855 66.5449 38.2009 72.5584 38.2009C74.8701 38.2009 76.5925 38.748 77.0458 38.8959V44.0268ZM37.2935 57.66H32.3679V38.5411H37.2935V57.66Z" fill="#009EDC"/>
</g>
</svg>
