<svg width="189" height="27" viewBox="0 0 189 27" fill="none" xmlns="http://www.w3.org/2000/svg">
<g opacity="0.9">
<path fill-rule="evenodd" clip-rule="evenodd" d="M74.0034 22.7889L57.6662 22.7777V15.5358C57.6662 14.5691 58.4899 13.7469 59.467 13.7469H74.0034C76.5369 13.7469 78.5818 15.7701 78.5818 18.2573C78.5818 20.7725 76.5369 22.7951 74.0034 22.7951V22.7889ZM57.6662 2.7563L74.0772 2.77479C76.3778 2.77479 78.241 4.61582 78.241 6.88838C78.241 9.14805 76.3778 10.9863 74.0772 10.9863H59.217C58.6774 11.0255 58.1434 11.146 57.6662 11.3489V2.75574V2.7563ZM78.2695 12.3396C79.9339 11.0876 81.0302 9.11379 81.0302 6.87542C81.0302 3.09249 77.9116 0.0101053 74.0716 0.0101053L54.7085 0.000577966V25.5323H74.0035C78.0707 25.5323 81.3654 22.275 81.3654 18.2511C81.3654 15.8132 80.1441 13.6612 78.2695 12.3396ZM164.25 12.789C163.625 12.789 163.034 12.9145 162.489 13.1337L162.432 2.75556L178.65 2.74996C181.461 2.74996 183.739 4.98777 183.739 7.76808C183.739 10.5456 181.461 12.798 178.65 12.798L164.221 12.7868L164.25 12.789ZM186.921 22.7884C186.211 23.3527 185.199 23.2389 184.58 22.5922L178.917 15.5005C183.149 15.3716 186.529 11.9552 186.529 7.76201C186.529 3.47021 183.007 0 178.661 0H159.501V25.5339H162.46L162.517 17.2154C162.574 16.2884 163.347 15.5162 164.307 15.5162H175.207L182.285 24.3862C183.916 26.286 186.773 26.6027 188.761 25.0609L186.949 22.7872L186.921 22.7884ZM111.006 22.6107V15.6434C111.006 14.6867 111.83 13.9005 112.79 13.8825H125.656V10.9458H112.745C112.146 10.958 111.556 11.0836 111.006 11.3157V2.92212H132.013V0.000577966H108.024V25.5323H132.882V22.6113H111.006V22.6107ZM25.1966 0.0622873V14.9362C25.1966 20.0249 22.7086 23.0333 15.2347 23.0333C7.73931 23.0333 5.23705 20.0255 5.23705 14.9362V4.48075C5.14219 2.00251 3.08244 0.0118483 0.556885 0.0118483V2.89808C1.47258 2.89808 2.20082 3.59975 2.28717 4.48075V15.9517C2.28717 21.8475 6.97358 26.0384 15.2342 26.0384C23.4823 26.0384 28.1505 21.8475 28.1505 15.9517V0.0634082H25.1966V0.0622873Z" fill="#151A25"/>
</g>
</svg>
