<svg width="147" height="46" viewBox="0 0 147 46" fill="none" xmlns="http://www.w3.org/2000/svg">
<g opacity="0.9">
<path fill-rule="evenodd" clip-rule="evenodd" d="M77.7008 11.8116C77.7008 13.4325 76.3818 14.7382 74.7444 14.7382C73.1069 14.7382 71.7879 13.4325 71.7879 11.8116C71.7879 10.1907 73.0615 8.88496 74.7444 8.88496C76.4272 8.92999 77.7008 10.2357 77.7008 11.8116ZM65.5112 17.7097V18.4301C65.5112 18.4301 64.1012 16.6291 61.0993 16.6291C56.1416 16.6291 52.2755 20.3662 52.2755 25.544C52.2755 30.6768 56.0961 34.4589 61.0993 34.4589C64.1467 34.4589 65.5112 32.6129 65.5112 32.6129V33.3783C65.5112 33.7385 65.7841 34.0086 66.148 34.0086H69.8321V17.0794H66.148C65.7841 17.0794 65.5112 17.3945 65.5112 17.7097ZM65.5112 28.5606C64.829 29.5511 63.4645 30.4066 61.827 30.4066C58.9161 30.4066 56.6874 28.6056 56.6874 25.5439C56.6874 22.4822 58.9161 20.6812 61.827 20.6812C63.419 20.6812 64.8744 21.5817 65.5112 22.5273V28.5606ZM72.5612 17.0794H76.9277V34.0086H72.5612V17.0794ZM137.785 16.629C134.783 16.629 133.373 18.43 133.373 18.43V8.92976H129.006V34.0085H132.69C133.054 34.0085 133.327 33.6933 133.327 33.3781V32.6127C133.327 32.6127 134.737 34.4587 137.739 34.4587C142.697 34.4587 146.563 30.6766 146.563 25.5438C146.563 20.411 142.697 16.629 137.785 16.629ZM137.057 30.3615C135.374 30.3615 134.055 29.506 133.372 28.5155V22.4822C134.055 21.5817 135.51 20.6362 137.057 20.6362C139.968 20.6362 142.196 22.4371 142.196 25.4988C142.196 28.5605 139.968 30.3615 137.057 30.3615ZM126.732 23.9681V34.0537H122.365V24.4634C122.365 21.6719 121.456 20.5463 119 20.5463C117.681 20.5463 116.316 21.2216 115.452 22.2122V34.0086H111.086V17.0794H114.542C114.906 17.0794 115.179 17.3945 115.179 17.7097V18.4301C116.453 17.1244 118.135 16.6291 119.818 16.6291C121.729 16.6291 123.321 17.1694 124.594 18.25C126.141 19.5107 126.732 21.1316 126.732 23.9681ZM100.488 16.629C97.4862 16.629 96.0762 18.43 96.0762 18.43V8.92976H91.7098V34.0085H95.394C95.7578 34.0085 96.0307 33.6933 96.0307 33.3781V32.6127C96.0307 32.6127 97.4407 34.4587 100.443 34.4587C105.4 34.4587 109.266 30.6766 109.266 25.5438C109.312 20.411 105.446 16.629 100.488 16.629ZM99.7602 30.3615C98.0773 30.3615 96.7583 29.506 96.0761 28.5155V22.4822C96.7583 21.5817 98.2138 20.6362 99.7602 20.6362C102.671 20.6362 104.9 22.4371 104.9 25.4988C104.9 28.5605 102.671 30.3615 99.7602 30.3615ZM87.9346 16.6291C89.2536 16.6291 89.9359 16.8542 89.9359 16.8542V20.8614C89.9359 20.8614 86.2972 19.6458 84.023 22.2122V34.0537H79.6566V17.0794H83.3408C83.7047 17.0794 83.9776 17.3945 83.9776 17.7097V18.4301C84.7963 17.4846 86.5701 16.6291 87.9346 16.6291ZM42.5876 32.4777C42.3602 31.9374 42.1328 31.3521 41.9053 30.8568C41.5415 30.0464 41.1776 29.281 40.8592 28.5606L40.8137 28.5156C37.6754 21.7619 34.3142 14.9181 30.7664 8.16444L30.63 7.89429C30.2661 7.21892 29.9023 6.49853 29.5384 5.77813C29.0836 4.96769 28.6287 4.11222 27.901 3.30178C26.4455 1.5008 24.3533 0.510254 22.1246 0.510254C19.8504 0.510254 17.8037 1.5008 16.3027 3.21173C15.6204 4.02217 15.1201 4.87764 14.6653 5.68809C14.3014 6.40848 13.9376 7.12887 13.5737 7.80424L13.4372 8.07439C9.93501 14.8281 6.52375 21.6718 3.38539 28.4255L3.33991 28.5156C3.02152 29.236 2.65766 30.0014 2.29379 30.8118C2.06637 31.3071 1.83895 31.8474 1.61154 32.4327C1.02025 34.0986 0.838318 35.6745 1.06574 37.2954C1.56605 40.6722 3.84023 43.5088 6.97859 44.7695C8.16116 45.2647 9.38921 45.4898 10.6627 45.4898C11.0266 45.4898 11.4814 45.4448 11.8453 45.3998C13.3463 45.2197 14.8927 44.7244 16.3937 43.869C18.2585 42.8334 20.0323 41.3476 22.0336 39.1864C24.0349 41.3476 25.8542 42.8334 27.6736 43.869C29.1745 44.7244 30.721 45.2197 32.2219 45.3998C32.5858 45.4448 33.0406 45.4898 33.4045 45.4898C34.678 45.4898 35.9516 45.2647 37.0841 44.7695C40.2679 43.5088 42.4966 40.6272 42.9969 37.2954C43.3608 35.7195 43.1789 34.1436 42.5876 32.4777ZM22.0789 34.819C19.6228 31.7574 18.0309 28.8758 17.4851 26.4445C17.2577 25.4089 17.2122 24.5084 17.3487 23.698C17.4396 22.9776 17.7125 22.3472 18.0764 21.8069C18.9406 20.5913 20.396 19.8259 22.0789 19.8259C23.7618 19.8259 25.2628 20.5462 26.0815 21.8069C26.4453 22.3472 26.7182 22.9776 26.8092 23.698C26.9457 24.5084 26.9002 25.4539 26.6728 26.4445C26.127 28.8308 24.535 31.7124 22.0789 34.819ZM40.2223 36.9351C39.9039 39.2764 38.312 41.3025 36.0879 42.203C34.9963 42.6533 33.8137 42.7883 32.6311 42.6533C31.494 42.5182 30.357 42.158 29.1744 41.4826C27.537 40.5821 25.8996 39.1864 23.9893 37.1152C26.9912 33.4682 28.8105 30.1364 29.4928 27.1648C29.8112 25.769 29.8566 24.5083 29.7202 23.3377C29.5383 22.2121 29.1289 21.1765 28.4921 20.276C27.0822 18.2499 24.717 17.0793 22.079 17.0793C19.4409 17.0793 17.0758 18.295 15.6658 20.276C15.029 21.1765 14.6197 22.2121 14.4377 23.3377C14.2558 24.5083 14.3013 25.8141 14.6652 27.1648C15.3474 30.1364 17.2122 33.5133 20.1687 37.1603C18.3038 39.2314 16.621 40.6272 14.9835 41.5277C13.801 42.203 12.6639 42.5632 11.5268 42.6983C10.2987 42.8334 9.11618 42.6533 8.07006 42.248C5.84137 41.3476 4.24945 39.3214 3.93106 36.9802C3.79461 35.8545 3.88558 34.7289 4.34042 33.4682C4.47687 33.018 4.70428 32.5678 4.9317 32.0275C5.25009 31.3071 5.61395 30.5416 5.97782 29.7762L6.0233 29.6862C9.16166 22.9775 12.5274 16.1338 16.0297 9.47013L16.1661 9.19998C16.53 8.52461 16.8939 7.80422 17.2577 7.12885C17.6216 6.40845 18.0309 5.73308 18.5313 5.14776C19.4864 4.06717 20.7599 3.48185 22.1699 3.48185C23.5799 3.48185 24.8535 4.06717 25.8086 5.14776C26.3089 5.73308 26.7183 6.40845 27.0822 7.12885C27.446 7.80422 27.8099 8.52461 28.1738 9.19998L28.3102 9.47013C31.7669 16.1788 35.1327 23.0225 38.2665 29.7312V29.7762C38.6304 30.4966 38.9488 31.3071 39.3127 32.0275C39.5401 32.5678 39.7675 33.018 39.9039 33.4682C40.2678 34.6389 40.4043 35.7645 40.2223 36.9351Z" fill="#FF5A60"/>
</g>
</svg>
