<svg width="259" height="60" viewBox="0 0 259 60" fill="none" xmlns="http://www.w3.org/2000/svg">
<g clip-path="url(#clip0_1_432)">
<path fill-rule="evenodd" clip-rule="evenodd" d="M13.8962 55.3956C30.2991 59.3543 41.3972 49.1631 37.1696 31.6224C37.2794 32.2907 37.3362 32.978 37.3362 33.6766C37.3362 40.6133 31.7134 46.2362 24.7766 46.2362C19.0553 46.2362 14.2276 42.4119 12.7111 37.179C12.304 35.7724 11.4067 34.7197 10.0833 34.0931C8.75994 33.4664 7.37599 33.4418 6.02991 34.0192L5.99962 34.0325C3.78266 34.9829 2.59182 37.3381 3.14086 39.6875C4.65543 46.1756 8.57062 51.7398 13.8981 55.3956H13.8962ZM5.48466 21.2324C8.51382 21.2324 10.9693 23.6879 10.9693 26.7171C10.9693 29.7462 8.51382 32.2017 5.48466 32.2017C2.45551 32.2017 0 29.7462 0 26.7171C0 23.6879 2.45551 21.2324 5.48466 21.2324Z" fill="white"/>
<path fill-rule="evenodd" clip-rule="evenodd" d="M34.3524 50.373C37.8397 46.0754 39.093 39.6119 37.1676 31.6206C37.2774 32.2889 37.3342 32.9762 37.3342 33.6747C37.3342 40.6115 31.7113 46.2344 24.7746 46.2344C19.0533 46.2344 14.2255 42.4101 12.7091 37.1772C12.302 35.7705 11.4046 34.7179 10.0813 34.0913C8.88855 33.5271 7.65039 33.4514 6.43304 33.8622C9.47735 48.4173 21.6886 54.9697 34.3543 50.3711L34.3524 50.373Z" fill="white"/>
<path fill-rule="evenodd" clip-rule="evenodd" d="M13.8961 55.3957C30.299 59.3544 41.3971 49.1632 37.1676 31.6206C37.2774 32.2889 37.3342 32.9762 37.3342 33.6747C37.3342 36.117 36.6356 38.3964 35.4296 40.3256C34.6364 50.284 26.2797 56.4086 13.8942 55.3938L13.8961 55.3957Z" fill="white"/>
<path fill-rule="evenodd" clip-rule="evenodd" d="M37.1676 31.6206C41.3971 49.1613 30.299 59.3544 13.8942 55.3957C18.1275 58.2999 23.2505 60 28.7731 60C43.3111 60 55.0964 48.2147 55.0964 33.6766C55.0964 30.0151 54.3486 26.5297 52.9987 23.3624C52.0578 21.1549 50.4599 19.5911 48.2335 18.6994C46.0071 17.8058 43.7712 17.8323 41.5675 18.7789L41.4709 18.8205C37.2812 20.6172 35.1949 25.3086 36.6659 29.6232C36.8855 30.2669 37.054 30.9352 37.1676 31.6225V31.6206ZM38.1142 0C43.0536 0 47.0578 4.00416 47.0578 8.94358C47.0578 13.883 43.0536 17.8872 38.1142 17.8872C33.1748 17.8872 29.1706 13.883 29.1706 8.94358C29.1706 4.00416 33.1748 0 38.1142 0Z" fill="white"/>
<path fill-rule="evenodd" clip-rule="evenodd" d="M44.9658 28.4496C41.6281 20.0891 43.3774 18.2091 48.2354 18.6995C46.009 17.8059 43.7731 17.8324 41.5694 18.779L41.4728 18.8206C37.2831 20.6173 35.1968 25.3087 36.6678 29.6234C36.8875 30.2671 37.056 30.9354 37.1696 31.6226C41.399 49.1633 30.3009 59.3545 13.8981 55.3977C20.5717 58.2508 27.3248 58.1391 32.978 56.0244C43.8375 51.9615 50.6304 40.5018 44.9677 28.4515L44.9658 28.4496Z" fill="white"/>
</g>
<path d="M74.8505 39C79.9864 39 83.4425 35.496 83.4425 30.336C83.4425 25.152 79.9385 21.648 74.7544 21.648H69.1144V39H74.8505ZM74.5864 23.808C78.5465 23.808 80.9945 26.304 80.9945 30.336C80.9945 34.32 78.5465 36.816 74.6825 36.816H71.4664V23.808H74.5864ZM91.1148 39.288C94.0188 39.288 95.9868 37.872 96.5628 35.352H94.4508C94.0668 36.696 92.9148 37.416 91.1628 37.416C88.9308 37.416 87.6348 36.048 87.4668 33.576L96.5388 33.552V32.712C96.5388 29.232 94.3548 26.928 91.0188 26.928C87.6108 26.928 85.2828 29.472 85.2828 33.144C85.2828 36.792 87.6588 39.288 91.1148 39.288ZM91.0188 28.824C93.0108 28.824 94.2828 30.12 94.2828 32.064H87.5148C87.8028 30 89.0508 28.824 91.0188 28.824ZM98.0986 35.592C98.0986 37.824 99.8506 39.288 102.611 39.288C105.395 39.288 107.315 37.872 107.315 35.64C107.315 33.888 106.331 32.976 104.339 32.496L102.275 31.992C101.123 31.704 100.547 31.176 100.547 30.384C100.547 29.304 101.339 28.68 102.755 28.68C104.123 28.68 104.915 29.424 104.963 30.6H107.123C107.075 28.368 105.395 26.928 102.827 26.928C100.235 26.928 98.4106 28.296 98.4106 30.456C98.4106 32.184 99.3946 33.216 101.483 33.72L103.547 34.2C104.771 34.512 105.155 34.992 105.155 35.784C105.155 36.864 104.243 37.512 102.659 37.512C101.171 37.512 100.259 36.792 100.259 35.592H98.0986ZM110.92 24.48C111.736 24.48 112.408 23.808 112.408 22.992C112.408 22.152 111.736 21.504 110.92 21.504C110.104 21.504 109.432 22.152 109.432 22.992C109.432 23.808 110.104 24.48 110.92 24.48ZM109.816 39H112.072V27.264H109.816V39ZM114.604 32.832C114.604 36.12 116.716 38.688 120.052 38.688C121.9 38.688 123.436 37.872 124.204 36.504V38.856C124.204 41.088 122.764 42.528 120.556 42.528C118.588 42.528 117.292 41.52 117.004 39.792H114.748C115.18 42.768 117.364 44.568 120.556 44.568C124.156 44.568 126.436 42.216 126.436 38.52V27.264H124.42L124.252 29.256C123.508 27.792 122.044 26.928 120.148 26.928C116.74 26.928 114.604 29.52 114.604 32.832ZM116.86 32.784C116.86 30.624 118.204 28.896 120.46 28.896C122.764 28.896 124.108 30.528 124.108 32.784C124.108 35.088 122.716 36.72 120.436 36.72C118.228 36.72 116.86 34.992 116.86 32.784ZM131.947 39V32.784C131.947 30.504 133.171 28.992 135.283 28.992C137.011 28.992 138.115 29.952 138.115 32.328V39H140.371V31.824C140.371 28.824 138.955 26.928 135.859 26.928C134.203 26.928 132.715 27.72 131.971 29.064L131.731 27.264H129.691V39H131.947ZM148.56 39.288C151.464 39.288 153.432 37.872 154.008 35.352H151.896C151.512 36.696 150.36 37.416 148.608 37.416C146.376 37.416 145.08 36.048 144.912 33.576L153.984 33.552V32.712C153.984 29.232 151.8 26.928 148.464 26.928C145.056 26.928 142.728 29.472 142.728 33.144C142.728 36.792 145.104 39.288 148.56 39.288ZM148.464 28.824C150.456 28.824 151.728 30.12 151.728 32.064H144.96C145.248 30 146.496 28.824 148.464 28.824ZM163.224 27.168C162.768 27.072 162.432 27.024 162.024 27.024C160.416 27.024 159.24 27.84 158.76 29.064L158.616 27.288H156.504V39H158.76V32.784C158.76 30.528 160.08 29.232 162.216 29.232H163.224V27.168ZM175.675 39V34.032C175.675 32.088 175.651 30.6 175.435 29.28L179.179 39H182.731L186.499 29.28C186.307 30.6 186.307 31.44 186.307 35.28V39H190.075V21.24H186.259L180.955 34.488L175.675 21.24H171.907V39H175.675ZM198.887 39.312C202.175 39.312 204.551 37.608 204.983 34.944H201.599C201.335 35.808 200.351 36.312 198.959 36.312C197.327 36.312 196.439 35.568 196.223 33.984L204.935 33.936V33C204.935 29.088 202.583 26.616 198.815 26.616C195.191 26.616 192.671 29.232 192.671 32.976C192.671 36.672 195.263 39.312 198.887 39.312ZM198.839 29.616C200.327 29.616 201.263 30.432 201.263 31.704H196.271C196.559 30.264 197.375 29.616 198.839 29.616ZM212.691 39.312C215.979 39.312 218.355 37.608 218.787 34.944H215.403C215.139 35.808 214.155 36.312 212.763 36.312C211.131 36.312 210.243 35.568 210.027 33.984L218.739 33.936V33C218.739 29.088 216.387 26.616 212.619 26.616C208.995 26.616 206.475 29.232 206.475 32.976C206.475 36.672 209.067 39.312 212.691 39.312ZM212.643 29.616C214.131 29.616 215.067 30.432 215.067 31.704H210.075C210.363 30.264 211.179 29.616 212.643 29.616ZM225.659 39V30.072H227.939V27H225.659V23.28H221.963V27H219.683V30.072H221.963V39H225.659ZM237.568 27V33.24C237.568 35.208 236.92 36.024 235.336 36.024C233.824 36.024 233.152 35.16 233.152 33.192V27H229.456V34.536C229.456 37.488 231.136 39.312 233.872 39.312C235.312 39.312 236.8 38.64 237.544 37.656L237.784 39H241.264V27H237.568ZM244.037 44.76H247.733V37.8C248.429 38.712 249.965 39.336 251.621 39.336C255.197 39.336 257.261 36.6 257.261 32.808C257.261 28.944 254.933 26.616 251.597 26.616C249.893 26.616 248.381 27.36 247.709 28.464L247.517 27H244.037V44.76ZM247.757 33C247.757 31.2 248.957 30 250.685 30C252.437 30 253.541 31.224 253.541 33C253.541 34.776 252.437 36 250.685 36C248.957 36 247.757 34.8 247.757 33Z" fill="white"/>
<defs>
<clipPath id="clip0_1_432">
<rect width="55.0984" height="60" fill="white"/>
</clipPath>
</defs>
</svg>
